<?xml version="1.0" encoding="UTF-8" standalone="no"?>
<svg
   version="1.1"
   width="1000"
   height="255.88202"
   viewBox="0 0 749.99996 191.91153"
   id="svg54"
   sodipodi:docname="ByteDance_2018_Mandarin.svg"
   xml:space="preserve"
   inkscape:version="1.3.2 (091e20e, 2023-11-25, custom)"
   xmlns:inkscape="http://www.inkscape.org/namespaces/inkscape"
   xmlns:sodipodi="http://sodipodi.sourceforge.net/DTD/sodipodi-0.dtd"
   xmlns="http://www.w3.org/2000/svg"
   xmlns:svg="http://www.w3.org/2000/svg"><defs
     id="defs54" /><sodipodi:namedview
     id="namedview54"
     pagecolor="#ffffff"
     bordercolor="#000000"
     borderopacity="0.25"
     inkscape:showpageshadow="2"
     inkscape:pageopacity="0.0"
     inkscape:pagecheckerboard="0"
     inkscape:deskcolor="#d1d1d1"
     inkscape:document-units="px"
     inkscape:zoom="0.716"
     inkscape:cx="500"
     inkscape:cy="127.7933"
     inkscape:window-width="1366"
     inkscape:window-height="705"
     inkscape:window-x="-8"
     inkscape:window-y="-8"
     inkscape:window-maximized="1"
     inkscape:current-layer="svg54" /><g
     enable-background="new"
     id="g54"
     transform="matrix(1.5911706,0,0,1.5911706,-940.53384,-1399.2607)"><g
       id="g53"
       data-name="P"><clipPath
         id="cp0"><path
           transform="matrix(2.7777777,0,0,-2.7777777,0,2244.0946)"
           d="M 0,0 H 595.276 V 807.874 H 0 Z"
           id="path1" /></clipPath><g
         clip-path="url(#cp0)"
         id="g2"
         style="fill:#325ab4;fill-opacity:1"><path
           transform="matrix(2.7777777,0,0,-2.7777777,0,2244.0946)"
           d="m 272.9752,486.6884 c 0.281,0.194 0.508,0.431 0.676,0.705 0.212,0.345 0.32,0.73 0.32,1.145 0,0.496 -0.116,0.948 -0.343,1.343 -0.227,0.396 -0.562,0.728 -0.997,0.985 -0.255,0.152 -0.58,0.263 -0.963,0.33 -0.377,0.064 -0.893,0.097 -1.532,0.097 h -2.405 v -9.958 h 3.651 c 0.925,0 1.708,0.275 2.331,0.815 0.628,0.546 0.946,1.228 0.946,2.027 0,0.641 -0.166,1.189 -0.493,1.629 -0.283,0.38 -0.682,0.676 -1.191,0.882 m -0.926,0.798 c -0.292,-0.248 -0.717,-0.374 -1.262,-0.374 h -1.546 v 2.839 h 1.459 c 0.6,0 1.054,-0.122 1.347,-0.362 0.292,-0.238 0.432,-0.586 0.432,-1.063 0,-0.454 -0.14,-0.794 -0.43,-1.04 m -2.808,-1.741 h 1.837 c 0.68,0 1.198,-0.13 1.537,-0.387 0.334,-0.252 0.497,-0.616 0.497,-1.112 0,-0.505 -0.167,-0.874 -0.511,-1.128 -0.35,-0.26 -0.879,-0.391 -1.572,-0.391 h -1.788 z"
           fill="#385da1"
           id="path2"
           style="fill:#325ab4;fill-opacity:1" /></g><g
         id="Layer-1"
         data-name="P"
         style="fill:#325ab4;fill-opacity:1"><path
           transform="matrix(2.7777777,0,0,-2.7777777,0,2244.0946)"
           d="m 284.8029,489.8793 h -1.435 v -1.625 h -1.147 -1.057 -0.515 l -1.775,-4.296 c -0.031,-0.073 -0.086,-0.229 -0.169,-0.476 -0.048,-0.147 -0.103,-0.314 -0.165,-0.502 -0.058,0.2 -0.108,0.374 -0.154,0.521 -0.1,0.326 -0.138,0.42 -0.156,0.457 l -1.75,4.296 h -1.593 l 2.838,-6.794 -1.226,-2.891 h 1.468 l 3.707,8.442 h 1.694 v -4.167 c 0,-0.591 0.141,-1.024 0.417,-1.285 0.276,-0.26 0.732,-0.391 1.358,-0.391 h 0.789 v 1.373 h -0.745 c -0.14,0 -0.239,0.032 -0.295,0.094 -0.059,0.067 -0.089,0.185 -0.089,0.352 v 4.024 h 1.129 v 1.243 h -1.129 z"
           fill="#385da1"
           id="path3"
           style="fill:#325ab4;fill-opacity:1" /></g><g
         id="g4"
         data-name="P"
         style="fill:#325ab4;fill-opacity:1"><path
           transform="matrix(2.7777777,0,0,-2.7777777,0,2244.0946)"
           d="m 290.1613,488.4214 c -1.052,0 -1.917,-0.342 -2.571,-1.018 -0.653,-0.674 -0.984,-1.568 -0.984,-2.655 0,-0.46 0.08,-0.906 0.237,-1.325 0.158,-0.42 0.388,-0.796 0.683,-1.117 0.338,-0.363 0.746,-0.647 1.217,-0.843 0.468,-0.196 0.979,-0.295 1.518,-0.295 0.652,0 1.246,0.123 1.768,0.365 0.52,0.242 1.004,0.622 1.441,1.129 l 0.083,0.099 -1.044,0.839 -0.079,-0.091 c -0.297,-0.341 -0.628,-0.602 -0.984,-0.776 -0.354,-0.173 -0.739,-0.261 -1.148,-0.261 -0.636,0 -1.17,0.182 -1.584,0.541 -0.385,0.332 -0.603,0.749 -0.661,1.269 h 5.725 v 0.212 c 0,1.168 -0.335,2.124 -0.997,2.842 -0.665,0.72 -1.546,1.085 -2.62,1.085 m -1.441,-1.799 c 0.394,0.336 0.875,0.507 1.429,0.507 0.545,0 1.014,-0.167 1.394,-0.497 0.345,-0.299 0.565,-0.688 0.655,-1.157 h -4.143 c 0.084,0.457 0.308,0.843 0.665,1.147"
           fill="#385da1"
           id="path4"
           style="fill:#325ab4;fill-opacity:1" /></g><g
         id="g5"
         data-name="P"
         style="fill:#325ab4;fill-opacity:1"><path
           transform="matrix(2.7777777,0,0,-2.7777777,0,2244.0946)"
           d="m 301.7318,490.0252 c -0.968,0.842 -2.393,1.268 -4.235,1.268 h -2.134 v -9.958 h 2.134 c 1.842,0 3.267,0.427 4.235,1.269 0.974,0.845 1.467,2.093 1.467,3.707 0,1.619 -0.493,2.868 -1.467,3.714 m -4.042,-7.298 h -0.805 v 7.168 h 0.805 c 1.318,0 2.322,-0.303 2.984,-0.901 0.657,-0.595 0.991,-1.498 0.991,-2.683 0,-1.181 -0.334,-2.083 -0.992,-2.68 -0.661,-0.599 -1.665,-0.904 -2.983,-0.904"
           fill="#385da1"
           id="path5"
           style="fill:#325ab4;fill-opacity:1" /></g><g
         id="g6"
         data-name="P"
         style="fill:#325ab4;fill-opacity:1"><path
           transform="matrix(2.7777777,0,0,-2.7777777,0,2244.0946)"
           d="m 309.7075,487.3799 c -0.266,0.284 -0.571,0.511 -0.911,0.679 -0.443,0.216 -0.935,0.325 -1.464,0.325 -1.048,0 -1.903,-0.331 -2.543,-0.986 -0.638,-0.654 -0.963,-1.522 -0.963,-2.581 0,-0.489 0.082,-0.949 0.245,-1.367 0.162,-0.419 0.406,-0.8 0.727,-1.134 0.337,-0.345 0.728,-0.612 1.161,-0.794 0.433,-0.181 0.895,-0.273 1.373,-0.273 0.537,0 1.023,0.103 1.441,0.307 0.317,0.155 0.601,0.37 0.847,0.642 v -0.862 h 1.429 v 6.918 h -1.342 z m -0.642,-0.929 c 0.409,-0.426 0.616,-0.98 0.616,-1.647 0,-0.67 -0.207,-1.225 -0.615,-1.65 -0.407,-0.423 -0.937,-0.638 -1.573,-0.638 -0.636,0 -1.165,0.214 -1.572,0.636 -0.409,0.422 -0.616,0.978 -0.616,1.652 0,0.671 0.208,1.226 0.616,1.65 0.407,0.424 0.936,0.638 1.572,0.638 0.636,0 1.165,-0.216 1.572,-0.641"
           fill="#385da1"
           id="path6"
           style="fill:#325ab4;fill-opacity:1" /></g><g
         id="g7"
         data-name="P"
         style="fill:#325ab4;fill-opacity:1"><path
           transform="matrix(2.7777777,0,0,-2.7777777,0,2244.0946)"
           d="m 315.4422,488.3843 c -0.389,0 -0.758,-0.078 -1.097,-0.231 -0.259,-0.117 -0.51,-0.283 -0.751,-0.495 v 0.596 h -1.416 v -6.919 h 1.416 v 3.823 c 0,0.656 0.14,1.151 0.414,1.472 0.269,0.314 0.683,0.474 1.229,0.474 0.48,0 0.819,-0.143 1.038,-0.437 0.224,-0.3 0.338,-0.792 0.338,-1.46 v -3.872 h 1.429 v 3.99 c 0,0.94 -0.233,1.692 -0.693,2.233 -0.466,0.548 -1.107,0.826 -1.907,0.826"
           fill="#385da1"
           id="path7"
           style="fill:#325ab4;fill-opacity:1" /></g><g
         id="g8"
         data-name="P"
         style="fill:#325ab4;fill-opacity:1"><path
           transform="matrix(2.7777777,0,0,-2.7777777,0,2244.0946)"
           d="m 323.7646,483.1629 c -0.178,-0.227 -0.395,-0.401 -0.645,-0.515 -0.254,-0.116 -0.551,-0.175 -0.882,-0.175 -0.618,0 -1.105,0.21 -1.492,0.641 -0.384,0.429 -0.578,0.994 -0.578,1.678 0,0.684 0.196,1.252 0.585,1.688 0.39,0.436 0.877,0.649 1.485,0.649 0.313,0 0.594,-0.052 0.835,-0.154 0.24,-0.102 0.458,-0.264 0.647,-0.479 l 0.095,-0.109 0.924,1.07 -0.091,0.082 c -0.324,0.295 -0.689,0.518 -1.086,0.664 -0.394,0.145 -0.839,0.219 -1.324,0.219 -0.51,0 -0.984,-0.086 -1.411,-0.254 -0.428,-0.17 -0.809,-0.423 -1.128,-0.751 -0.338,-0.342 -0.596,-0.74 -0.768,-1.184 -0.173,-0.442 -0.26,-0.927 -0.26,-1.441 0,-0.514 0.087,-0.998 0.26,-1.438 0.173,-0.442 0.43,-0.84 0.767,-1.18 0.317,-0.326 0.697,-0.577 1.129,-0.749 0.431,-0.171 0.905,-0.257 1.411,-0.257 0.492,0 0.943,0.077 1.338,0.229 0.397,0.152 0.778,0.395 1.135,0.722 l 0.09,0.083 -0.943,1.081 z"
           fill="#385da1"
           id="path8"
           style="fill:#325ab4;fill-opacity:1" /></g><g
         id="g9"
         data-name="P"
         style="fill:#325ab4;fill-opacity:1"><path
           transform="matrix(2.7777777,0,0,-2.7777777,0,2244.0946)"
           d="m 332.5515,484.4944 c 0,1.168 -0.336,2.124 -0.997,2.842 -0.665,0.72 -1.546,1.085 -2.62,1.085 -1.053,0 -1.917,-0.342 -2.571,-1.018 -0.653,-0.674 -0.985,-1.568 -0.985,-2.655 0,-0.46 0.08,-0.906 0.238,-1.325 0.158,-0.42 0.388,-0.796 0.683,-1.117 0.338,-0.363 0.746,-0.647 1.217,-0.843 0.468,-0.196 0.978,-0.295 1.517,-0.295 0.653,0 1.247,0.123 1.768,0.365 0.521,0.242 1.005,0.622 1.442,1.129 l 0.083,0.099 -1.044,0.839 -0.079,-0.091 c -0.298,-0.341 -0.629,-0.602 -0.985,-0.776 -0.353,-0.173 -0.739,-0.261 -1.147,-0.261 -0.637,0 -1.17,0.182 -1.584,0.541 -0.385,0.333 -0.603,0.749 -0.661,1.269 h 5.725 z m -5.059,2.128 c 0.395,0.336 0.876,0.507 1.43,0.507 0.545,0 1.014,-0.167 1.393,-0.497 0.346,-0.3 0.566,-0.688 0.656,-1.157 h -4.143 c 0.084,0.457 0.308,0.843 0.664,1.147"
           fill="#385da1"
           id="path9"
           style="fill:#325ab4;fill-opacity:1" /></g><g
         id="g10"
         data-name="P"
         style="fill:#325ab4;fill-opacity:1"><path
           transform="matrix(2.7777777,0,0,-2.7777777,0,2244.0946)"
           d="m 219.7534,452.9382 -6.959,-1.787 v 31.698 l 6.959,-1.787 z"
           fill="#385da1"
           id="path10"
           style="fill:#325ab4;fill-opacity:1" /></g><g
         id="g11"
         data-name="P"
         style="fill:#78e6dc;fill-opacity:1"><path
           transform="matrix(2.7777777,0,0,-2.7777777,0,2244.0946)"
           d="m 253.3607,451.0826 -6.959,-1.787 v 35.409 l 6.959,-1.787 z"
           fill="#7ac3c0"
           id="path11"
           style="fill:#78e6dc;fill-opacity:1" /></g><g
         id="g12"
         data-name="P"
         style="fill:#3c8cff;fill-opacity:1"><path
           transform="matrix(2.7777777,0,0,-2.7777777,0,2244.0946)"
           d="m 230.7876,451.9762 -6.959,-1.787 v 18.666 l 6.959,-1.787 z"
           fill="#4a7cb5"
           id="path12"
           style="fill:#3c8cff;fill-opacity:1" /></g><g
         id="g13"
         data-name="P"
         style="fill:#00c8d2;fill-opacity:1"><path
           transform="matrix(2.7777777,0,0,-2.7777777,0,2244.0946)"
           d="m 235.3371,471.6195 6.959,1.787 v -18.666 l -6.959,1.787 z"
           fill="#33b0b7"
           id="path13"
           style="fill:#00c8d2;fill-opacity:1" /></g><g
         id="g14"
         data-name="P"
         style="fill:#325ab4;fill-opacity:1"><path
           transform="matrix(2.7777777,0,0,-2.7777777,0,2244.0946)"
           d="m 355.629,472.748 h 10.954 v 2.436 h -10.954 z"
           fill="#385da1"
           id="path14"
           style="fill:#325ab4;fill-opacity:1" /></g><g
         id="g15"
         data-name="P"
         style="fill:#325ab4;fill-opacity:1"><path
           transform="matrix(2.7777777,0,0,-2.7777777,0,2244.0946)"
           d="m 380.2578,473.4958 h -5.596 l 0.377,2.415 h -2.458 l -0.387,-2.415 h -3.061 v -2.436 h 2.717 l -3.06,-21.977 h 2.56 l 2.978,21.977 h 4.949 c 0.423,0 0.768,-0.345 0.768,-0.769 v -19.062 h -4.164 v -2.436 h 6.6 v 22.48 c 0,1.226 -0.997,2.223 -2.223,2.223"
           fill="#385da1"
           id="path15"
           style="fill:#325ab4;fill-opacity:1" /></g><g
         id="g16"
         data-name="P"
         style="fill:#325ab4;fill-opacity:1"><path
           transform="matrix(2.7777777,0,0,-2.7777777,0,2244.0946)"
           d="m 354.3042,465.1737 h 3.221 l -2.398,-16.091 h 10.226 c 1.143,0 2.069,0.927 2.069,2.07 v 6.06 h -2.435 v -4.697 c 0,-0.551 -0.447,-0.997 -0.998,-0.997 h -5.952 l 1.954,13.655 h 7.917 v 2.436 h -13.604 z"
           fill="#385da1"
           id="path16"
           style="fill:#325ab4;fill-opacity:1" /></g><g
         id="g17"
         data-name="P"
         style="fill:#325ab4;fill-opacity:1"><path
           transform="matrix(2.7777777,0,0,-2.7777777,0,2244.0946)"
           d="m 340.0557,466.7872 -0.775,6.712 h -2.439 l 0.775,-6.712 z"
           fill="#385da1"
           id="path17"
           style="fill:#325ab4;fill-opacity:1" /></g><g
         id="g18"
         data-name="P"
         style="fill:#325ab4;fill-opacity:1"><path
           transform="matrix(2.7777777,0,0,-2.7777777,0,2244.0946)"
           d="m 339.8285,464.1758 h -2.438 l -0.871,-9.479 h 2.439 z"
           fill="#385da1"
           id="path18"
           style="fill:#325ab4;fill-opacity:1" /></g><g
         id="g19"
         data-name="P"
         style="fill:#325ab4;fill-opacity:1"><path
           transform="matrix(2.7777777,0,0,-2.7777777,0,2244.0946)"
           d="m 351.6359,473.4987 h -2.438 l -0.776,-6.712 h 2.439 z"
           fill="#385da1"
           id="path19"
           style="fill:#325ab4;fill-opacity:1" /></g><g
         id="g20"
         data-name="P"
         style="fill:#325ab4;fill-opacity:1"><path
           transform="matrix(2.7777777,0,0,-2.7777777,0,2244.0946)"
           d="m 348.4284,464.1758 0.872,-9.479 h 2.437 l -0.873,9.479 z"
           fill="#385da1"
           id="path20"
           style="fill:#325ab4;fill-opacity:1" /></g><g
         id="g21"
         data-name="P"
         style="fill:#325ab4;fill-opacity:1"><path
           transform="matrix(2.7777777,0,0,-2.7777777,0,2244.0946)"
           d="m 347.6506,475.7713 h -2.436 v -27.082 h 6.395 v 2.436 h -3.959 z"
           fill="#385da1"
           id="path21"
           style="fill:#325ab4;fill-opacity:1" /></g><g
         id="g22"
         data-name="P"
         style="fill:#325ab4;fill-opacity:1"><path
           transform="matrix(2.7777777,0,0,-2.7777777,0,2244.0946)"
           d="m 340.2476,451.9576 c 0,-0.459 -0.373,-0.833 -0.833,-0.833 h -2.108 v -2.435 h 3.153 c 1.226,0 2.224,0.997 2.224,2.216 l 0.825,24.866 h -2.436 z"
           fill="#385da1"
           id="path22"
           style="fill:#325ab4;fill-opacity:1" /></g><g
         id="g23"
         data-name="P"
         style="fill:#325ab4;fill-opacity:1"><path
           transform="matrix(2.7777777,0,0,-2.7777777,0,2244.0946)"
           d="m 332.2373,458.6858 h 3.259 v 2.436 h -3.259 v 3.184 h 3.259 v 9.011 c 0,1.209 -0.985,2.194 -2.194,2.194 h -8.036 v -11.205 h 4.535 v -11.862 l -1.703,-0.443 v 10.508 h -2.436 v -11.143 l -1.359,-0.354 v -2.517 l 11.421,2.976 v 2.516 l -3.487,-0.908 z m 0.823,13.772 v -5.717 h -5.358 v 6.334 h 4.74 c 0.34,0 0.618,-0.277 0.618,-0.617"
           fill="#385da1"
           id="path23"
           style="fill:#325ab4;fill-opacity:1" /></g><g
         id="g24"
         data-name="P"
         style="fill:#325ab4;fill-opacity:1"><path
           transform="matrix(2.7777777,0,0,-2.7777777,0,2244.0946)"
           d="m 317.9312,466.7247 h -21.544 v -2.436 h 5.776 v -16.415 h 2.434 v 16.415 h 12.388 c 0.404,0 0.733,-0.329 0.733,-0.734 v -11.639 h -4.164 v -2.435 h 6.6 v 15.021 c 0,1.226 -0.997,2.223 -2.223,2.223"
           fill="#385da1"
           id="path24"
           style="fill:#325ab4;fill-opacity:1" /></g><g
         id="g25"
         data-name="P"
         style="fill:#325ab4;fill-opacity:1"><path
           transform="matrix(2.7777777,0,0,-2.7777777,0,2244.0946)"
           d="m 316.5539,475.7713 h -2.436 v -1.738 h -11.694 v 1.738 h -2.436 v -1.738 h -4.75 v -2.435 h 4.75 v -3.265 h 2.436 v 3.265 h 11.694 v -3.265 h 2.436 v 3.265 h 5.448 v 2.435 h -5.448 z"
           fill="#385da1"
           id="path25"
           style="fill:#325ab4;fill-opacity:1" /></g><g
         id="g26"
         data-name="P"
         style="fill:#325ab4;fill-opacity:1"><path
           transform="matrix(2.7777777,0,0,-2.7777777,0,2244.0946)"
           d="m 290.3154,474.033 h -9.941 v 1.738 h -2.435 v -1.738 h -11.68 v -5.034 h 2.435 v 2.598 h 20.765 c 0.355,0 0.643,-0.288 0.643,-0.643 v -1.955 h 2.436 v 2.811 c 0,1.226 -0.997,2.223 -2.223,2.223"
           fill="#385da1"
           id="path26"
           style="fill:#325ab4;fill-opacity:1" /></g><g
         id="g27"
         data-name="P"
         style="fill:#325ab4;fill-opacity:1"><path
           transform="matrix(2.7777777,0,0,-2.7777777,0,2244.0946)"
           d="m 287.8327,464.7888 c 0.566,0.537 0.748,1.397 0.452,2.142 -0.316,0.792 -1.075,1.246 -2.084,1.246 h -16.371 v -2.435 h 14.667 c 0.156,0 0.232,-0.083 0.266,-0.152 0.07,-0.138 0.044,-0.329 -0.037,-0.446 l -4.992,-4.6 h -13.475 v -2.435 h 13.713 v -7.531 h -6.053 v -2.436 h 8.488 v 9.967 h 9.647 v 2.435 h -8.765 c 0.895,0.83 3.104,2.882 4.544,4.245"
           fill="#385da1"
           id="path27"
           style="fill:#325ab4;fill-opacity:1" /></g></g></g></svg>
